<svg width="61" height="46" viewBox="0 0 61 46" fill="none" xmlns="http://www.w3.org/2000/svg">
<path d="M0 46V32.3329C0 28.4521 0.759284 24.4869 2.27785 20.4374C3.79642 16.3879 5.80009 12.5704 8.28886 8.98487C10.7776 5.39935 13.4773 2.4044 16.3879 0L28.2834 7.02339C25.9211 10.7354 23.9807 14.6162 22.4622 18.6657C20.9858 22.7153 20.2476 27.2288 20.2476 32.2063V46H0ZM31.9532 46V32.3329C31.9532 28.4521 32.7125 24.4869 34.2311 20.4374C35.7497 16.3879 37.7533 12.5704 40.2421 8.98487C42.7309 5.39935 45.4305 2.4044 48.3411 0L60.2366 7.02339C57.8744 10.7354 55.934 14.6162 54.4154 18.6657C52.939 22.7153 52.2008 27.2288 52.2008 32.2063V46H31.9532Z" fill="#149CDC"/>
</svg>
